<svg xlink="http://www.w3.org/1999/xlink" viewBox="0 0 5000 5000" xmlns="http://www.w3.org/2000/svg" style="transform: scale(1);"><defs><filter id="goo"><feGaussianBlur in="SourceGraphic" stdDeviation="21.15" result="blur"></feGaussianBlur><feColorMatrix in="blur" type="matrix" values="1 0 0 0 0 0 1 0 0 0 0 0 1 0 0 0 0 0 19 -9" result="good"></feColorMatrix><feComposite in="SourceGraphic" in2="goo" operator="atop"></feComposite></filter><path d="M234,168C266,164 269,221 275,229C282,237 337,245 329,276C318,306 267,280 256,282C244,284 203,324 186,303C169,282 216,252 219,240C223,228 208,173 234,168z" id="P0"></path><path d="M252,287C243,288 240,272 234,267C229,263 213,262 213,252C212,243 228,240 233,234C237,229 238,213 248,213C257,212 260,228 266,233C271,237 287,238 287,248C288,257 272,260 267,266C263,271 262,287 252,287z" id="P1"></path><path d="M308,170C324,180 281,230 284,239C287,245 352,256 344,281C339,299 278,274 271,279C266,283 275,349 250,349C231,350 236,284 229,279C223,275 164,305 156,281C149,263 213,248 216,239C218,232 171,185 192,170C207,158 241,214 250,214C257,214 288,155 308,170z" id="P2"></path><path d="M208,281C197,264 222,246 226,239C230,231 224,202 243,198C264,197 266,227 271,234C277,243 305,257 297,272C290,287 263,274 253,276C243,277 218,295 208,281z" id="P3"></path><path d="M190,235C193,219 228,230 235,226C241,222 246,186 265,190C281,193 270,228 274,235C278,241 314,246 310,265C307,281 272,270 265,274C259,278 254,314 235,310C219,307 230,272 226,265C222,259 186,254 190,235z" id="P4"></path><path d="M187,220C192,208 229,227 236,224C240,221 241,178 259,181C272,181 265,223 271,228C275,232 315,219 319,237C322,250 280,256 277,263C275,268 299,303 284,311C272,319 254,281 246,280C240,279 215,313 202,301C192,292 222,263 221,256C219,250 179,236 187,220z" id="P5"></path><path d="M342,207C358,243 287,262 279,271C272,281 283,352 244,352C204,348 222,276 217,265C211,252 147,217 167,190C187,163 238,214 252,214C266,215 329,176 342,207z" id="P6"></path><path d="M354,230C360,257 287,262 281,270C276,278 303,347 270,354C243,360 238,287 230,281C222,276 153,303 146,270C140,243 213,238 219,230C224,222 197,153 230,146C257,140 262,213 270,219C278,224 347,197 354,230z" id="P7"></path><path d="M361,279C357,300 282,274 275,280C269,285 287,363 257,365C235,368 238,288 229,283C223,279 154,320 143,292C134,272 210,250 212,240C214,233 154,180 177,161C193,146 238,212 248,211C255,210 287,137 312,153C331,164 282,226 286,236C289,242 368,250 361,279z" id="P8"></path></defs><rect id="RECT" width="5000" height="5000" fill="#232323"></rect><g id="group" fill="#919191" filter="url(#goo)"><use x="8" y="-48" href="#P8"></use><use x="-38" y="103" href="#P2"></use><use x="-426" y="1266" href="#P3"></use><use x="-312" y="2297" href="#P0"></use><use x="-182" y="2940" href="#P5"></use><use x="-427" y="3256" href="#P2"></use><use x="-347" y="4263" href="#P1"></use><use x="-474" y="5025" href="#P4"></use><use x="-188" y="5511" href="#P8"></use><use x="847" y="-664" href="#P3"></use><use x="684" y="664" href="#P7"></use><use x="713" y="1169" href="#P1"></use><use x="88" y="1970" href="#P5"></use><use x="544" y="3103" href="#P8"></use><use x="197" y="3914" href="#P4"></use><use x="432" y="4364" href="#P6"></use><use x="299" y="5016" href="#P7"></use><use x="179" y="5698" href="#P4"></use><use x="1335" y="-712" href="#P7"></use><use x="1360" y="222" href="#P7"></use><use x="799" y="740" href="#P1"></use><use x="1009" y="1875" href="#P2"></use><use x="1257" y="2576" href="#P4"></use><use x="878" y="3971" href="#P4"></use><use x="1337" y="4644" href="#P8"></use><use x="1478" y="5110" href="#P0"></use><use x="1488" y="5789" href="#P7"></use><use x="2097" y="-719" href="#P6"></use><use x="1956" y="122" href="#P0"></use><use x="2008" y="981" href="#P6"></use><use x="2433" y="1939" href="#P0"></use><use x="2407" y="2743" href="#P1"></use><use x="2308" y="3566" href="#P6"></use><use x="1890" y="4857" href="#P7"></use><use x="2051" y="5466" href="#P4"></use><use x="2463" y="6166" href="#P7"></use><use x="3095" y="-119" href="#P4"></use><use x="3331" y="-71" href="#P8"></use><use x="3076" y="725" href="#P2"></use><use x="2584" y="1700" href="#P4"></use><use x="3303" y="2943" href="#P1"></use><use x="2956" y="3895" href="#P2"></use><use x="2601" y="4654" href="#P1"></use><use x="3121" y="5503" href="#P7"></use><use x="2565" y="5768" href="#P5"></use><use x="3924" y="-50" href="#P5"></use><use x="4088" y="503" href="#P0"></use><use x="3544" y="1433" href="#P1"></use><use x="3466" y="1610" href="#P5"></use><use x="3530" y="2651" href="#P8"></use><use x="3779" y="3801" href="#P3"></use><use x="4034" y="4744" href="#P0"></use><use x="3404" y="5100" href="#P8"></use><use x="3857" y="5898" href="#P5"></use><use x="4536" y="-196" href="#P8"></use><use x="4530" y="119" href="#P3"></use><use x="4798" y="1424" href="#P0"></use><use x="5034" y="1984" href="#P7"></use><use x="4421" y="3037" href="#P7"></use><use x="4733" y="3320" href="#P6"></use><use x="4221" y="4742" href="#P1"></use><use x="4779" y="4836" href="#P0"></use><use x="4612" y="5478" href="#P5"></use><use x="5115" y="-504" href="#P4"></use><use x="5654" y="578" href="#P8"></use><use x="5513" y="1156" href="#P5"></use><use x="5104" y="2098" href="#P5"></use><use x="5488" y="2742" href="#P4"></use><use x="5626" y="3709" href="#P6"></use><use x="5034" y="4468" href="#P6"></use><use x="4927" y="5153" href="#P4"></use><use x="5150" y="5857" href="#P3"></use></g></svg>