<svg xlink="http://www.w3.org/1999/xlink" viewBox="0 0 5000 5000" xmlns="http://www.w3.org/2000/svg" style="transform: scale(1);"><defs><filter id="goo"><feGaussianBlur in="SourceGraphic" stdDeviation="21.15" result="blur"></feGaussianBlur><feColorMatrix in="blur" type="matrix" values="1 0 0 0 0 0 1 0 0 0 0 0 1 0 0 0 0 0 19 -9" result="good"></feColorMatrix><feComposite in="SourceGraphic" in2="goo" operator="atop"></feComposite></filter><path d="M176,291C161,261 163,228 178,204C193,181 217,167 250,165C283,166 312,184 324,209C339,239 337,272 322,296C307,319 283,333 250,335C217,334 188,316 176,291z" id="P0"></path><path d="M424,346L82,357L250,51L424,346z" id="P1"></path><path d="M379,208L292,379L121,292L208,121L379,208z" id="P2"></path><path d="M359,222L311,345L178,337L145,208L257,137L359,222z" id="P3"></path><path d="M396,144L414,327L273,430L104,356L86,173L227,70L396,144z" id="P4"></path><path d="M268,154C306,162 334,189 343,220C353,250 348,282 326,312C300,341 263,353 232,346C194,338 166,311 157,280C147,250 152,218 174,188C200,159 237,147 268,154z" id="P5"></path><path d="M147,244L305,163L294,343L147,244z" id="P6"></path><path d="M412,314L186,412L88,186L314,88L412,314z" id="P7"></path><path d="M318,126L389,277L268,391L122,310L153,146L318,126z" id="P8"></path><path d="M229,419L92,313L112,150L271,81L408,187L388,350L229,419z" id="P9"></path><path d="M374,353C332,400 271,419 220,408C169,398 127,366 100,309C79,250 91,187 126,147C168,100 229,81 280,92C331,102 373,134 400,191C421,250 409,313 374,353z" id="P10"></path><path d="M65,190L392,117L287,442L65,190z" id="P11"></path><path d="M292,316L184,292L208,184L316,208L292,316z" id="P12"></path><path d="M444,213L345,423L115,394L72,166L275,55L444,213z" id="P13"></path><path d="M250,104L378,180L378,320L250,396L122,320L122,180L250,104z" id="P14"></path></defs><rect id="RECT" width="5000" height="5000" fill="#232323"></rect><g id="group" fill="#919191" filter="url(#goo)"><use x="-418" y="56" href="#P10"></use><use x="-111" y="438" href="#P0"></use><use x="-109" y="1344" href="#P2"></use><use x="-535" y="1611" href="#P14"></use><use x="-593" y="2876" href="#P2"></use><use x="-631" y="3666" href="#P4"></use><use x="-544" y="4117" href="#P1"></use><use x="-536" y="4748" href="#P1"></use><use x="-196" y="5736" href="#P9"></use><use x="587" y="-106" href="#P0"></use><use x="627" y="93" href="#P14"></use><use x="476" y="1504" href="#P2"></use><use x="344" y="1623" href="#P12"></use><use x="332" y="2875" href="#P4"></use><use x="746" y="4028" href="#P13"></use><use x="157" y="4224" href="#P11"></use><use x="477" y="4800" href="#P4"></use><use x="464" y="5984" href="#P10"></use><use x="1220" y="-404" href="#P11"></use><use x="1488" y="-59" href="#P12"></use><use x="1539" y="742" href="#P0"></use><use x="1003" y="1593" href="#P2"></use><use x="1393" y="2681" href="#P0"></use><use x="1085" y="3487" href="#P0"></use><use x="1475" y="4819" href="#P2"></use><use x="1155" y="4891" href="#P13"></use><use x="1012" y="5619" href="#P12"></use><use x="1739" y="-558" href="#P5"></use><use x="1768" y="642" href="#P0"></use><use x="2242" y="1427" href="#P7"></use><use x="1838" y="1643" href="#P4"></use><use x="1574" y="2966" href="#P10"></use><use x="2186" y="3825" href="#P0"></use><use x="1702" y="4349" href="#P13"></use><use x="1768" y="4931" href="#P3"></use><use x="2109" y="6138" href="#P10"></use><use x="2726" y="-315" href="#P14"></use><use x="2536" y="114" href="#P8"></use><use x="3320" y="707" href="#P7"></use><use x="2697" y="2308" href="#P1"></use><use x="3042" y="2492" href="#P3"></use><use x="3087" y="3903" href="#P5"></use><use x="3239" y="4768" href="#P9"></use><use x="2988" y="5444" href="#P14"></use><use x="2594" y="6072" href="#P5"></use><use x="3365" y="-332" href="#P2"></use><use x="3982" y="207" href="#P3"></use><use x="4151" y="1054" href="#P1"></use><use x="3986" y="2044" href="#P0"></use><use x="3576" y="2727" href="#P14"></use><use x="4256" y="3644" href="#P6"></use><use x="3578" y="4481" href="#P3"></use><use x="3912" y="5411" href="#P14"></use><use x="3317" y="5905" href="#P6"></use><use x="4467" y="-63" href="#P11"></use><use x="4675" y="466" href="#P14"></use><use x="4904" y="1219" href="#P3"></use><use x="5055" y="2338" href="#P10"></use><use x="4502" y="2708" href="#P7"></use><use x="4672" y="3301" href="#P8"></use><use x="4788" y="4602" href="#P14"></use><use x="4926" y="5018" href="#P10"></use><use x="4630" y="5794" href="#P13"></use><use x="5129" y="-188" href="#P11"></use><use x="5227" y="134" href="#P0"></use><use x="5081" y="1291" href="#P2"></use><use x="5077" y="1595" href="#P10"></use><use x="5540" y="2396" href="#P7"></use><use x="5393" y="3954" href="#P14"></use><use x="5363" y="3988" href="#P2"></use><use x="5189" y="5191" href="#P12"></use><use x="4973" y="5832" href="#P7"></use></g></svg>