<svg xlink="http://www.w3.org/1999/xlink" viewBox="0 0 5000 5000" xmlns="http://www.w3.org/2000/svg" style="transform: scale(1);"><defs><filter id="goo"><feGaussianBlur in="SourceGraphic" stdDeviation="21.15" result="blur"></feGaussianBlur><feColorMatrix in="blur" type="matrix" values="1 0 0 0 0 0 1 0 0 0 0 0 1 0 0 0 0 0 19 -9" result="good"></feColorMatrix><feComposite in="SourceGraphic" in2="goo" operator="atop"></feComposite></filter><path d="M232,319C202,309 181,282 179,254C179,222 198,195 224,184C255,174 287,183 305,205C324,231 325,264 310,288C291,314 260,325 232,319z" id="P0"></path><path d="M239,293C220,286 207,270 206,253C206,233 218,216 234,209C253,203 273,209 284,222C296,238 296,259 287,274C275,290 256,297 239,293z" id="P1"></path><path d="M201,198C227,178 260,175 284,188C311,205 325,236 320,263C311,295 287,317 259,320C227,322 198,305 186,280C174,250 181,218 201,198z" id="P2"></path></defs><rect id="RECT" width="5000" height="5000" fill="#232323"></rect><g id="group" fill="#919191" filter="url(#goo)"><use x="-493" y="-308" href="#P1"></use><use x="-493" y="200" href="#P1"></use><use x="-424" y="1200" href="#P1"></use><use x="-125" y="2200" href="#P0"></use><use x="-164" y="3024" href="#P0"></use><use x="-349" y="3953" href="#P1"></use><use x="-220" y="4429" href="#P0"></use><use x="-409" y="5000" href="#P1"></use><use x="-109" y="5777" href="#P0"></use><use x="279" y="-590" href="#P1"></use><use x="108" y="332" href="#P1"></use><use x="116" y="1544" href="#P2"></use><use x="384" y="1813" href="#P1"></use><use x="524" y="2514" href="#P2"></use><use x="293" y="3446" href="#P2"></use><use x="399" y="4522" href="#P2"></use><use x="589" y="5011" href="#P2"></use><use x="800" y="5560" href="#P1"></use><use x="1606" y="-733" href="#P2"></use><use x="1482" y="-83" href="#P0"></use><use x="777" y="1311" href="#P2"></use><use x="911" y="1769" href="#P0"></use><use x="904" y="2614" href="#P2"></use><use x="1132" y="3912" href="#P0"></use><use x="794" y="4400" href="#P0"></use><use x="1209" y="5200" href="#P2"></use><use x="1569" y="5983" href="#P0"></use><use x="1974" y="-448" href="#P1"></use><use x="1958" y="135" href="#P2"></use><use x="1879" y="1381" href="#P0"></use><use x="2101" y="1568" href="#P1"></use><use x="1787" y="2394" href="#P2"></use><use x="2037" y="4041" href="#P2"></use><use x="1871" y="4809" href="#P2"></use><use x="1805" y="5358" href="#P0"></use><use x="1914" y="6133" href="#P2"></use><use x="2684" y="-520" href="#P2"></use><use x="3016" y="-75" href="#P0"></use><use x="3297" y="1285" href="#P2"></use><use x="3017" y="2282" href="#P1"></use><use x="3408" y="3188" href="#P0"></use><use x="3210" y="3746" href="#P0"></use><use x="2990" y="4457" href="#P2"></use><use x="3314" y="5389" href="#P2"></use><use x="3313" y="5752" href="#P0"></use><use x="3326" y="-634" href="#P0"></use><use x="3634" y="160" href="#P0"></use><use x="3687" y="1009" href="#P0"></use><use x="4203" y="1697" href="#P1"></use><use x="3730" y="3173" href="#P0"></use><use x="4000" y="3885" href="#P2"></use><use x="3452" y="4585" href="#P2"></use><use x="3669" y="5260" href="#P0"></use><use x="3357" y="5828" href="#P2"></use><use x="4811" y="-143" href="#P2"></use><use x="4293" y="434" href="#P2"></use><use x="4674" y="1443" href="#P2"></use><use x="4411" y="2302" href="#P1"></use><use x="4384" y="2378" href="#P0"></use><use x="4550" y="4003" href="#P1"></use><use x="4551" y="4128" href="#P1"></use><use x="4320" y="4892" href="#P2"></use><use x="4447" y="5694" href="#P0"></use><use x="5556" y="79" href="#P2"></use><use x="5121" y="86" href="#P0"></use><use x="5350" y="1435" href="#P0"></use><use x="5514" y="2325" href="#P0"></use><use x="5398" y="3125" href="#P1"></use><use x="5692" y="3496" href="#P2"></use><use x="5365" y="4265" href="#P2"></use><use x="5251" y="4977" href="#P1"></use><use x="5003" y="5840" href="#P0"></use></g></svg>