<svg xlink="http://www.w3.org/1999/xlink" viewBox="0 0 5000 5000" xmlns="http://www.w3.org/2000/svg" style="transform: scale(1);"><defs><filter id="goo"><feGaussianBlur in="SourceGraphic" stdDeviation="21.15" result="blur"></feGaussianBlur><feColorMatrix in="blur" type="matrix" values="1 0 0 0 0 0 1 0 0 0 0 0 1 0 0 0 0 0 19 -9" result="good"></feColorMatrix><feComposite in="SourceGraphic" in2="goo" operator="atop"></feComposite></filter><path d="M198,207C215,187 246,219 256,221C265,223 302,201 313,225C322,250 279,262 273,269C265,277 259,322 237,317C216,313 227,271 222,261C219,250 183,223 198,207z" id="P0"></path><path d="M328,186C345,205 287,243 286,255C285,264 335,312 314,328C295,345 257,287 245,286C236,285 188,335 172,314C155,295 213,257 214,248C214,238 161,194 186,172C205,155 243,213 252,214C262,214 306,161 328,186z" id="P1"></path><path d="M358,215C366,235 290,253 287,262C285,269 340,325 317,342C300,356 260,289 250,289C243,289 207,359 183,342C164,330 216,271 213,262C210,255 133,243 142,215C147,193 219,225 227,219C233,214 221,136 250,136C272,135 265,213 273,219C279,223 349,187 358,215z" id="P2"></path><path d="M239,161C274,158 271,221 278,230C284,239 345,250 334,283C320,315 265,283 254,284C241,285 194,327 177,303C160,279 214,250 218,237C224,225 209,164 239,161z" id="P3"></path><path d="M202,285C193,273 221,254 223,245C224,238 203,211 215,202C227,193 246,221 255,223C262,224 289,203 298,215C307,227 279,246 277,255C276,262 297,289 285,298C273,307 254,279 245,277C238,276 211,297 202,285z" id="P4"></path><path d="M213,172C228,164 248,216 256,217C263,218 297,175 313,191C325,203 282,237 283,246C284,252 336,272 325,291C318,306 272,276 264,280C259,283 256,338 234,334C217,332 232,279 226,273C221,268 168,283 165,261C162,244 217,241 221,234C224,228 194,182 213,172z" id="P5"></path><path d="M183,218C196,193 238,220 248,219C258,219 292,184 310,207C326,230 282,254 278,263C272,274 279,323 255,324C231,325 233,277 225,268C218,258 172,240 183,218z" id="P6"></path><path d="M302,168C324,181 282,232 285,243C287,252 346,281 332,302C319,324 268,282 257,285C248,287 219,346 198,332C176,319 218,268 215,257C213,248 154,219 168,198C181,176 232,218 243,215C252,213 281,154 302,168z" id="P7"></path><path d="M322,318C310,333 259,269 254,270C250,271 231,351 208,340C190,333 235,265 232,260C230,257 148,263 151,238C153,218 231,240 235,236C238,233 206,157 231,152C250,148 254,229 259,231C262,233 325,180 337,202C347,218 271,247 270,253C270,257 340,299 322,318z" id="P8"></path></defs><rect id="RECT" width="5000" height="5000" fill="#232323"></rect><g id="group" fill="#919191" filter="url(#goo)"><use x="-81" y="20" href="#P1"></use><use x="-60" y="506" href="#P0"></use><use x="-456" y="902" href="#P5"></use><use x="-687" y="1894" href="#P8"></use><use x="-445" y="2844" href="#P1"></use><use x="-126" y="3964" href="#P0"></use><use x="-274" y="4348" href="#P1"></use><use x="-401" y="5019" href="#P6"></use><use x="-109" y="5500" href="#P3"></use><use x="575" y="-149" href="#P6"></use><use x="779" y="430" href="#P2"></use><use x="147" y="874" href="#P6"></use><use x="450" y="2368" href="#P2"></use><use x="-54" y="2835" href="#P7"></use><use x="533" y="3477" href="#P8"></use><use x="657" y="4675" href="#P4"></use><use x="333" y="4880" href="#P1"></use><use x="678" y="5951" href="#P7"></use><use x="1640" y="-179" href="#P1"></use><use x="952" y="-42" href="#P2"></use><use x="1551" y="1064" href="#P5"></use><use x="1556" y="2268" href="#P5"></use><use x="1396" y="2894" href="#P6"></use><use x="995" y="3494" href="#P3"></use><use x="978" y="4738" href="#P1"></use><use x="1076" y="4909" href="#P4"></use><use x="1556" y="5724" href="#P0"></use><use x="2171" y="-160" href="#P8"></use><use x="2162" y="316" href="#P2"></use><use x="1721" y="747" href="#P0"></use><use x="1714" y="1540" href="#P3"></use><use x="2328" y="2561" href="#P2"></use><use x="2368" y="3452" href="#P1"></use><use x="1972" y="4853" href="#P4"></use><use x="2137" y="4939" href="#P5"></use><use x="1772" y="5664" href="#P8"></use><use x="2612" y="-303" href="#P2"></use><use x="2575" y="382" href="#P8"></use><use x="3378" y="996" href="#P4"></use><use x="3301" y="1650" href="#P3"></use><use x="2936" y="2961" href="#P6"></use><use x="2568" y="3303" href="#P1"></use><use x="2663" y="4838" href="#P1"></use><use x="2500" y="5359" href="#P2"></use><use x="2969" y="6138" href="#P3"></use><use x="4106" y="-56" href="#P1"></use><use x="3780" y="10" href="#P2"></use><use x="4171" y="1343" href="#P1"></use><use x="3693" y="2329" href="#P3"></use><use x="3981" y="3201" href="#P3"></use><use x="3834" y="3731" href="#P4"></use><use x="3699" y="4819" href="#P4"></use><use x="3558" y="5095" href="#P3"></use><use x="3436" y="6039" href="#P7"></use><use x="4656" y="-342" href="#P4"></use><use x="4198" y="4" href="#P3"></use><use x="4273" y="1037" href="#P7"></use><use x="4398" y="2227" href="#P1"></use><use x="4586" y="2981" href="#P5"></use><use x="4392" y="3678" href="#P4"></use><use x="4530" y="4110" href="#P4"></use><use x="4735" y="5280" href="#P7"></use><use x="4582" y="5489" href="#P3"></use><use x="5512" y="-506" href="#P3"></use><use x="5043" y="147" href="#P8"></use><use x="5221" y="1069" href="#P1"></use><use x="5428" y="1675" href="#P0"></use><use x="5311" y="3071" href="#P7"></use><use x="5720" y="3518" href="#P1"></use><use x="5503" y="4478" href="#P7"></use><use x="4938" y="4926" href="#P0"></use><use x="4976" y="5568" href="#P3"></use></g></svg>