<svg xlink="http://www.w3.org/1999/xlink" viewBox="0 0 5000 5000" xmlns="http://www.w3.org/2000/svg" style="transform: scale(1);"><defs><filter id="goo"><feGaussianBlur in="SourceGraphic" stdDeviation="21.15" result="blur"></feGaussianBlur><feColorMatrix in="blur" type="matrix" values="1 0 0 0 0 0 1 0 0 0 0 0 1 0 0 0 0 0 19 -9" result="good"></feColorMatrix><feComposite in="SourceGraphic" in2="goo" operator="atop"></feComposite></filter><path d="M114,250C186,215 211,188 250,114L386,250C379,321 329,374 250,386L114,250z" id="P0"></path><path d="M207,159Q297,106 341,207Q394,297 293,341L159,293Q106,203 207,159z" id="P1"></path><path d="M369,297C338,357 276,386 203,369C197,294 182,263 131,203Q168,76 297,131Q424,168 369,297z" id="P2"></path></defs><rect id="RECT" width="5000" height="5000" fill="#232323"></rect><g id="group" fill="#919191" filter="url(#goo)"><use x="470" y="356" href="#P2"></use><use x="-136" y="1004" href="#P2"></use><use x="429" y="1945" href="#P1"></use><use x="-241" y="2446" href="#P0"></use><use x="318" y="3581" href="#P1"></use><use x="333" y="4317" href="#P2"></use><use x="264" y="5164" href="#P0"></use><use x="515" y="5556" href="#P2"></use><use x="1315" y="-38" href="#P0"></use><use x="667" y="872" href="#P2"></use><use x="855" y="1480" href="#P2"></use><use x="560" y="2626" href="#P0"></use><use x="599" y="2947" href="#P0"></use><use x="1245" y="3734" href="#P1"></use><use x="1160" y="5176" href="#P0"></use><use x="545" y="5880" href="#P0"></use><use x="2013" y="-248" href="#P0"></use><use x="2096" y="618" href="#P1"></use><use x="1505" y="2025" href="#P2"></use><use x="1978" y="2327" href="#P1"></use><use x="1344" y="3506" href="#P0"></use><use x="1763" y="3964" href="#P1"></use><use x="1762" y="4879" href="#P2"></use><use x="1596" y="5706" href="#P2"></use><use x="2592" y="-30" href="#P2"></use><use x="2332" y="1128" href="#P0"></use><use x="2232" y="1448" href="#P0"></use><use x="2266" y="2461" href="#P1"></use><use x="2628" y="3392" href="#P0"></use><use x="2324" y="3678" href="#P1"></use><use x="2129" y="4624" href="#P1"></use><use x="2167" y="5827" href="#P1"></use><use x="3593" y="-187" href="#P1"></use><use x="3301" y="1263" href="#P0"></use><use x="3494" y="1591" href="#P2"></use><use x="3193" y="2541" href="#P2"></use><use x="3202" y="3243" href="#P2"></use><use x="3186" y="3680" href="#P1"></use><use x="3263" y="4777" href="#P2"></use><use x="3062" y="5445" href="#P1"></use><use x="3716" y="-244" href="#P2"></use><use x="4124" y="726" href="#P1"></use><use x="3980" y="1807" href="#P1"></use><use x="4027" y="2682" href="#P1"></use><use x="3902" y="3061" href="#P1"></use><use x="3847" y="3963" href="#P0"></use><use x="3805" y="4812" href="#P1"></use><use x="3942" y="5904" href="#P2"></use><use x="5114" y="525" href="#P0"></use><use x="4532" y="954" href="#P0"></use><use x="4491" y="1842" href="#P1"></use><use x="5215" y="2773" href="#P1"></use><use x="4660" y="3324" href="#P2"></use><use x="5249" y="3876" href="#P2"></use><use x="4633" y="4814" href="#P1"></use><use x="5065" y="5589" href="#P2"></use></g></svg>