<svg xlink="http://www.w3.org/1999/xlink" viewBox="0 0 5000 5000" xmlns="http://www.w3.org/2000/svg" style="transform: scale(1);"><defs><filter id="goo"><feGaussianBlur in="SourceGraphic" stdDeviation="21.15" result="blur"></feGaussianBlur><feColorMatrix in="blur" type="matrix" values="1 0 0 0 0 0 1 0 0 0 0 0 1 0 0 0 0 0 19 -9" result="good"></feColorMatrix><feComposite in="SourceGraphic" in2="goo" operator="atop"></feComposite></filter><path d="M136,264L146,201L365,250L339,323L136,264z" id="P0"></path><path d="M198,345L144,270L324,171L358,250L198,345z" id="P1"></path><path d="M136,243L208,144L350,305L328,333L136,243z" id="P2"></path><path d="M222,101L361,146L250,402L146,361L222,101z" id="P3"></path><path d="M296,134L375,258L183,356L134,296L296,134z" id="P4"></path><path d="M279,363L221,363L235,134L279,137L279,363z" id="P5"></path></defs><rect id="RECT" width="5000" height="5000" fill="#232323"></rect><g id="group" fill="#919191" filter="url(#goo)"><use x="-316" y="-52" href="#P2"></use><use x="-439" y="696" href="#P2"></use><use x="-471" y="826" href="#P0"></use><use x="-114" y="1603" href="#P1"></use><use x="-750" y="2802" href="#P3"></use><use x="-433" y="3426" href="#P1"></use><use x="-153" y="4379" href="#P3"></use><use x="-228" y="5114" href="#P0"></use><use x="-78" y="5775" href="#P2"></use><use x="535" y="-533" href="#P2"></use><use x="753" y="629" href="#P3"></use><use x="237" y="1408" href="#P1"></use><use x="652" y="2009" href="#P4"></use><use x="76" y="2481" href="#P2"></use><use x="34" y="3416" href="#P0"></use><use x="88" y="4131" href="#P4"></use><use x="309" y="4970" href="#P4"></use><use x="614" y="5989" href="#P2"></use><use x="1165" y="-282" href="#P3"></use><use x="1602" y="569" href="#P1"></use><use x="1305" y="874" href="#P4"></use><use x="838" y="1790" href="#P2"></use><use x="924" y="2602" href="#P5"></use><use x="1385" y="3291" href="#P4"></use><use x="1544" y="4166" href="#P1"></use><use x="1095" y="5267" href="#P1"></use><use x="1640" y="6211" href="#P0"></use><use x="2270" y="-518" href="#P0"></use><use x="2490" y="259" href="#P2"></use><use x="1752" y="1451" href="#P4"></use><use x="1905" y="2023" href="#P5"></use><use x="2365" y="3206" href="#P3"></use><use x="1969" y="3815" href="#P5"></use><use x="1887" y="4135" href="#P5"></use><use x="2423" y="5379" href="#P3"></use><use x="2093" y="6200" href="#P3"></use><use x="2703" y="-212" href="#P5"></use><use x="3164" y="243" href="#P3"></use><use x="2594" y="1001" href="#P2"></use><use x="3145" y="1894" href="#P5"></use><use x="3218" y="3219" href="#P1"></use><use x="2883" y="3645" href="#P1"></use><use x="2945" y="4261" href="#P0"></use><use x="3193" y="5382" href="#P4"></use><use x="2558" y="5819" href="#P4"></use><use x="3389" y="-532" href="#P3"></use><use x="3626" y="435" href="#P4"></use><use x="4124" y="1469" href="#P1"></use><use x="3651" y="1577" href="#P0"></use><use x="4148" y="3083" href="#P5"></use><use x="3788" y="3593" href="#P5"></use><use x="3413" y="4239" href="#P2"></use><use x="3710" y="5117" href="#P0"></use><use x="3688" y="5956" href="#P4"></use><use x="4718" y="-54" href="#P4"></use><use x="4313" y="423" href="#P1"></use><use x="4874" y="910" href="#P0"></use><use x="4574" y="1589" href="#P2"></use><use x="4306" y="2551" href="#P2"></use><use x="4598" y="4025" href="#P2"></use><use x="4990" y="4334" href="#P5"></use><use x="4182" y="5230" href="#P5"></use><use x="4491" y="5550" href="#P4"></use><use x="5526" y="-107" href="#P0"></use><use x="5651" y="523" href="#P0"></use><use x="5404" y="948" href="#P5"></use><use x="5479" y="1844" href="#P1"></use><use x="5606" y="2996" href="#P5"></use><use x="5567" y="3855" href="#P1"></use><use x="5521" y="4115" href="#P2"></use><use x="5067" y="5244" href="#P1"></use><use x="5110" y="5578" href="#P1"></use></g></svg>